<mxfile host="drawio-plugin" modified="2024-02-17T21:57:19.993Z" agent="5.0 (Macintosh; Intel Mac OS X 10_15_7) AppleWebKit/537.36 (KHTML, like Gecko) Chrome/119.0.0.0 Safari/537.36" version="20.5.3" etag="wI2xFFZ9uIsNwfhozcG8" type="embed"><diagram id="VHa9E-H9HjCz9jRTm03j" name="Page-1"><mxGraphModel dx="842" dy="756" grid="1" gridSize="10" guides="1" tooltips="1" connect="1" arrows="1" fold="1" page="1" pageScale="1" pageWidth="850" pageHeight="1100" math="0" shadow="0"><root><mxCell id="0"/><mxCell id="1" parent="0"/><mxCell id="2" value="" style="edgeStyle=orthogonalEdgeStyle;rounded=0;orthogonalLoop=1;jettySize=auto;html=1;" edge="1" parent="1" source="3" target="12"><mxGeometry relative="1" as="geometry"><mxPoint x="414" y="120" as="targetPoint"/></mxGeometry></mxCell><mxCell id="3" value="Inicio" style="ellipse;whiteSpace=wrap;html=1;" vertex="1" parent="1"><mxGeometry x="376" y="40" width="75" height="40" as="geometry"/></mxCell><mxCell id="4" value="" style="edgeStyle=orthogonalEdgeStyle;rounded=0;orthogonalLoop=1;jettySize=auto;html=1;" edge="1" parent="1" source="5" target="7"><mxGeometry relative="1" as="geometry"/></mxCell><mxCell id="5" value="i&amp;nbsp;&amp;lt;&lt;br&gt;&amp;nbsp;(agesQuantity-1)&lt;br&gt;&lt;div style=&quot;text-align: center;&quot;&gt;&lt;span style=&quot;background-color: initial; color: rgba(0, 0, 0, 0); font-family: monospace; font-size: 0px; text-align: start;&quot;&gt;%3CmxGraphModel%3E%3Croot%3E%3CmxCell%20id%3D%220%22%2F%3E%3CmxCell%20id%3D%221%22%20parent%3D%220%22%2F%3E%3CmxCell%20id%3D%222%22%20value%3D%22mainVector%5BagesQuantity%5D%22%20style%3D%22rounded%3D0%3BwhiteSpace%3Dwrap%3Bhtml%3D1%3B%22%20vertex%3D%221%22%20parent%3D%221%22%3E%3CmxGeometry%20x%3D%22330%22%20y%3D%22200%22%20width%3D%22167%22%20height%3D%2240%22%20as%3D%22geometry%22%2F%3E%3C%2FmxCell%3E%3C%2Froot%3E%3C%2FmxGraphModel%3E&lt;/span&gt;&lt;font style=&quot;background-color: initial;&quot; face=&quot;monospace&quot; color=&quot;rgba(0, 0, 0, 0)&quot;&gt;&lt;span style=&quot;font-size: 0px;&quot;&gt;agesQuantity&lt;/span&gt;&lt;/font&gt;&lt;span style=&quot;background-color: initial; font-size: 0px;&quot;&gt;&lt;font face=&quot;monospace&quot; color=&quot;#ba0000&quot;&gt;agesQuantity&lt;/font&gt;&lt;/span&gt;&lt;/div&gt;" style="rhombus;whiteSpace=wrap;html=1;rounded=0;" vertex="1" parent="1"><mxGeometry x="351" y="520" width="125" height="110" as="geometry"/></mxCell><mxCell id="6" value="" style="edgeStyle=orthogonalEdgeStyle;rounded=0;orthogonalLoop=1;jettySize=auto;html=1;entryX=0.5;entryY=0;entryDx=0;entryDy=0;" edge="1" parent="1" source="7" target="9"><mxGeometry relative="1" as="geometry"><mxPoint x="413" y="770" as="targetPoint"/></mxGeometry></mxCell><mxCell id="7" value="int j = 0" style="whiteSpace=wrap;html=1;rounded=0;" vertex="1" parent="1"><mxGeometry x="354" y="680" width="120" height="40" as="geometry"/></mxCell><mxCell id="8" value="Fin" style="ellipse;whiteSpace=wrap;html=1;" vertex="1" parent="1"><mxGeometry x="376" y="1760" width="75" height="40" as="geometry"/></mxCell><mxCell id="9" value="j &amp;lt;&lt;br&gt;(agesQuantity-1)" style="rhombus;whiteSpace=wrap;html=1;rounded=0;" vertex="1" parent="1"><mxGeometry x="351" y="760" width="125" height="110" as="geometry"/></mxCell><mxCell id="10" value="" style="edgeStyle=orthogonalEdgeStyle;rounded=0;orthogonalLoop=1;jettySize=auto;html=1;exitX=0.5;exitY=1;exitDx=0;exitDy=0;entryX=0.5;entryY=0;entryDx=0;entryDy=0;" edge="1" parent="1" source="9" target="24"><mxGeometry relative="1" as="geometry"><mxPoint x="414" y="860" as="sourcePoint"/><mxPoint x="414" y="920" as="targetPoint"/></mxGeometry></mxCell><mxCell id="11" value="" style="edgeStyle=orthogonalEdgeStyle;rounded=0;orthogonalLoop=1;jettySize=auto;html=1;entryX=0.5;entryY=0;entryDx=0;entryDy=0;" edge="1" parent="1" source="12" target="14"><mxGeometry relative="1" as="geometry"><mxPoint x="414" y="200" as="targetPoint"/></mxGeometry></mxCell><mxCell id="12" value="fillMainVector()" style="shape=process;whiteSpace=wrap;html=1;backgroundOutline=1;" vertex="1" parent="1"><mxGeometry x="354" y="120" width="120" height="40" as="geometry"/></mxCell><mxCell id="13" style="edgeStyle=orthogonalEdgeStyle;rounded=0;orthogonalLoop=1;jettySize=auto;html=1;entryX=0.5;entryY=0;entryDx=0;entryDy=0;" edge="1" parent="1" source="14" target="16"><mxGeometry relative="1" as="geometry"/></mxCell><mxCell id="14" value="getMainVectorSize()" style="shape=process;whiteSpace=wrap;html=1;backgroundOutline=1;" vertex="1" parent="1"><mxGeometry x="336" y="200" width="156" height="40" as="geometry"/></mxCell><mxCell id="15" style="edgeStyle=orthogonalEdgeStyle;rounded=0;orthogonalLoop=1;jettySize=auto;html=1;entryX=0.5;entryY=0;entryDx=0;entryDy=0;" edge="1" parent="1" source="16" target="18"><mxGeometry relative="1" as="geometry"/></mxCell><mxCell id="16" value="agesQuantity = getMainVectorSize" style="rounded=0;whiteSpace=wrap;html=1;" vertex="1" parent="1"><mxGeometry x="311" y="275" width="206" height="45" as="geometry"/></mxCell><mxCell id="17" style="edgeStyle=orthogonalEdgeStyle;rounded=0;orthogonalLoop=1;jettySize=auto;html=1;entryX=0.5;entryY=0;entryDx=0;entryDy=0;" edge="1" parent="1" source="18" target="20"><mxGeometry relative="1" as="geometry"><mxPoint x="413.5" y="440" as="targetPoint"/></mxGeometry></mxCell><mxCell id="18" value="int *mainVector = fillMainVector(agesQuantity)" style="rounded=0;whiteSpace=wrap;html=1;" vertex="1" parent="1"><mxGeometry x="311" y="360" width="206" height="45" as="geometry"/></mxCell><mxCell id="19" style="edgeStyle=orthogonalEdgeStyle;rounded=0;orthogonalLoop=1;jettySize=auto;html=1;entryX=0.5;entryY=0;entryDx=0;entryDy=0;" edge="1" parent="1" source="20" target="5"><mxGeometry relative="1" as="geometry"><mxPoint x="413.5" y="480" as="sourcePoint"/></mxGeometry></mxCell><mxCell id="20" value="int i = 0" style="whiteSpace=wrap;html=1;rounded=0;" vertex="1" parent="1"><mxGeometry x="354" y="440" width="120" height="40" as="geometry"/></mxCell><mxCell id="21" value="Si" style="text;html=1;align=center;verticalAlign=middle;resizable=0;points=[];autosize=1;strokeColor=none;fillColor=none;" vertex="1" parent="1"><mxGeometry x="414" y="640" width="30" height="30" as="geometry"/></mxCell><mxCell id="22" value="Si" style="text;html=1;align=center;verticalAlign=middle;resizable=0;points=[];autosize=1;strokeColor=none;fillColor=none;" vertex="1" parent="1"><mxGeometry x="414" y="880" width="30" height="30" as="geometry"/></mxCell><mxCell id="23" value="" style="edgeStyle=orthogonalEdgeStyle;rounded=0;orthogonalLoop=1;jettySize=auto;html=1;" edge="1" parent="1" source="24" target="25"><mxGeometry relative="1" as="geometry"/></mxCell><mxCell id="24" value="Aux = 0" style="whiteSpace=wrap;html=1;rounded=0;" vertex="1" parent="1"><mxGeometry x="354" y="920" width="120" height="40" as="geometry"/></mxCell><mxCell id="25" value="mainVector [ j ]&lt;br&gt;&amp;lt;&lt;br&gt;mainVector [j+1]" style="rhombus;whiteSpace=wrap;html=1;rounded=0;" vertex="1" parent="1"><mxGeometry x="338" y="980" width="152" height="120" as="geometry"/></mxCell><mxCell id="26" style="edgeStyle=orthogonalEdgeStyle;rounded=0;orthogonalLoop=1;jettySize=auto;html=1;entryX=0.5;entryY=0;entryDx=0;entryDy=0;" edge="1" parent="1" source="27" target="30"><mxGeometry relative="1" as="geometry"/></mxCell><mxCell id="27" value="Aux = mainVector[j+1]" style="whiteSpace=wrap;html=1;rounded=0;" vertex="1" parent="1"><mxGeometry x="467" y="1080" width="120" height="40" as="geometry"/></mxCell><mxCell id="28" value="" style="endArrow=classic;html=1;rounded=0;exitX=1;exitY=0.5;exitDx=0;exitDy=0;entryX=0.5;entryY=0;entryDx=0;entryDy=0;" edge="1" parent="1" source="25" target="27"><mxGeometry width="50" height="50" relative="1" as="geometry"><mxPoint x="550" y="810" as="sourcePoint"/><mxPoint x="600" y="760" as="targetPoint"/><Array as="points"><mxPoint x="527" y="1040"/></Array></mxGeometry></mxCell><mxCell id="29" style="edgeStyle=orthogonalEdgeStyle;rounded=0;orthogonalLoop=1;jettySize=auto;html=1;entryX=0.5;entryY=0;entryDx=0;entryDy=0;" edge="1" parent="1" source="30" target="31"><mxGeometry relative="1" as="geometry"/></mxCell><mxCell id="30" value="mainVector[j] = mainVector[j+1]" style="whiteSpace=wrap;html=1;rounded=0;" vertex="1" parent="1"><mxGeometry x="467" y="1160" width="120" height="40" as="geometry"/></mxCell><mxCell id="31" value="mainVector[j+1] = aux" style="whiteSpace=wrap;html=1;rounded=0;" vertex="1" parent="1"><mxGeometry x="467" y="1240" width="120" height="40" as="geometry"/></mxCell><mxCell id="32" value="" style="endArrow=none;html=1;rounded=0;exitX=0;exitY=0.5;exitDx=0;exitDy=0;entryX=0.5;entryY=1;entryDx=0;entryDy=0;" edge="1" parent="1" source="25" target="31"><mxGeometry width="50" height="50" relative="1" as="geometry"><mxPoint x="480" y="1160" as="sourcePoint"/><mxPoint x="530" y="1110" as="targetPoint"/><Array as="points"><mxPoint x="290" y="1040"/><mxPoint x="290" y="1320"/><mxPoint x="527" y="1320"/></Array></mxGeometry></mxCell><mxCell id="33" value="j++" style="whiteSpace=wrap;html=1;rounded=0;" vertex="1" parent="1"><mxGeometry x="354" y="1360" width="120" height="40" as="geometry"/></mxCell><mxCell id="34" value="" style="endArrow=classic;html=1;rounded=0;entryX=0.5;entryY=0;entryDx=0;entryDy=0;" edge="1" parent="1" target="33"><mxGeometry width="50" height="50" relative="1" as="geometry"><mxPoint x="414" y="1320" as="sourcePoint"/><mxPoint x="540" y="1190" as="targetPoint"/></mxGeometry></mxCell><mxCell id="35" value="" style="endArrow=classic;html=1;rounded=0;exitX=0;exitY=0.5;exitDx=0;exitDy=0;entryX=0.5;entryY=0;entryDx=0;entryDy=0;" edge="1" parent="1" source="9" target="36"><mxGeometry width="50" height="50" relative="1" as="geometry"><mxPoint x="450" y="1110" as="sourcePoint"/><mxPoint x="414" y="1520" as="targetPoint"/><Array as="points"><mxPoint x="240" y="815"/><mxPoint x="240" y="1480"/><mxPoint x="414" y="1480"/></Array></mxGeometry></mxCell><mxCell id="36" value="j++" style="whiteSpace=wrap;html=1;rounded=0;" vertex="1" parent="1"><mxGeometry x="354" y="1520" width="120" height="40" as="geometry"/></mxCell><mxCell id="37" value="" style="endArrow=classic;html=1;rounded=0;exitX=0.5;exitY=1;exitDx=0;exitDy=0;" edge="1" parent="1" source="33"><mxGeometry width="50" height="50" relative="1" as="geometry"><mxPoint x="410" y="1320" as="sourcePoint"/><mxPoint x="414" y="740" as="targetPoint"/><Array as="points"><mxPoint x="414" y="1440"/><mxPoint x="640" y="1440"/><mxPoint x="640" y="740"/></Array></mxGeometry></mxCell><mxCell id="38" value="" style="endArrow=classic;html=1;rounded=0;exitX=0.5;exitY=1;exitDx=0;exitDy=0;" edge="1" parent="1"><mxGeometry width="50" height="50" relative="1" as="geometry"><mxPoint x="414" y="1560" as="sourcePoint"/><mxPoint x="414" y="500" as="targetPoint"/><Array as="points"><mxPoint x="414" y="1600"/><mxPoint x="680" y="1600"/><mxPoint x="680" y="500"/></Array></mxGeometry></mxCell><mxCell id="39" value="" style="endArrow=classic;html=1;rounded=0;exitX=0;exitY=0.5;exitDx=0;exitDy=0;entryX=0.5;entryY=0;entryDx=0;entryDy=0;" edge="1" parent="1" target="41"><mxGeometry width="50" height="50" relative="1" as="geometry"><mxPoint x="351" y="575" as="sourcePoint"/><mxPoint x="414" y="1683" as="targetPoint"/><Array as="points"><mxPoint x="200" y="575"/><mxPoint x="200" y="1640"/><mxPoint x="414" y="1640"/></Array></mxGeometry></mxCell><mxCell id="40" style="edgeStyle=orthogonalEdgeStyle;rounded=0;orthogonalLoop=1;jettySize=auto;html=1;entryX=0.5;entryY=0;entryDx=0;entryDy=0;" edge="1" parent="1" source="41" target="8"><mxGeometry relative="1" as="geometry"/></mxCell><mxCell id="41" value="getVectorAges(ageArray[], agesQty,)" style="shape=process;whiteSpace=wrap;html=1;backgroundOutline=1;" vertex="1" parent="1"><mxGeometry x="283" y="1680" width="261" height="40" as="geometry"/></mxCell></root></mxGraphModel></diagram></mxfile>